<svg width="180" height="130" viewBox="0 0 180 130" fill="none" xmlns="http://www.w3.org/2000/svg">
<ellipse rx="79.3322" ry="42.3943" transform="matrix(0.948538 -0.316665 0.339377 0.940651 89.6373 65)" fill="#B9E79E"/>
<path d="M81.7223 75.5838C81.0023 76.1118 79.9943 76.5558 78.6983 76.9158C77.4263 77.2518 75.7703 77.4198 73.7303 77.4198C71.7143 77.4198 69.7943 77.2518 67.9703 76.9158C66.1463 76.5798 64.8383 76.2078 64.0463 75.7998C63.2543 75.3918 62.8583 74.9958 62.8583 74.6118C62.8583 73.2678 63.0503 71.8758 63.4343 70.4358C63.8183 68.9718 64.2743 68.2398 64.8023 68.2398C64.8983 68.2398 65.8943 68.5638 67.7903 69.2118C69.6863 69.8598 71.1143 70.1838 72.0743 70.1838C73.0343 70.1838 73.6583 70.0878 73.9463 69.8958C74.2343 69.6798 74.3783 69.3798 74.3783 68.9958C74.3783 68.6118 74.1143 68.2758 73.5863 67.9878C73.0583 67.6758 72.3983 67.4118 71.6063 67.1958C70.8143 66.9558 69.9503 66.6198 69.0143 66.1878C68.1023 65.7558 67.2503 65.2758 66.4583 64.7478C65.6663 64.2198 65.0063 63.4758 64.4783 62.5158C63.9503 61.5318 63.6863 60.4158 63.6863 59.1678C63.6863 53.8398 66.8663 51.1758 73.2263 51.1758C75.6023 51.1758 77.6543 51.3318 79.3823 51.6438C81.1103 51.9318 82.3223 52.2678 83.0183 52.6518C83.7383 53.0118 84.0983 53.3718 84.0983 53.7318C84.0983 54.9798 83.7983 56.3238 83.1983 57.7638C82.6223 59.2038 82.0583 59.9238 81.5063 59.9238C81.4103 59.9238 81.0983 59.8158 80.5703 59.5998C78.9863 58.9038 77.6663 58.5558 76.6103 58.5558C75.5783 58.5558 74.8703 58.6518 74.4863 58.8438C74.1263 59.0358 73.9463 59.3358 73.9463 59.7438C73.9463 60.1278 74.2103 60.4518 74.7383 60.7158C75.2663 60.9558 75.9143 61.1838 76.6823 61.3998C77.4743 61.5918 78.3263 61.9038 79.2383 62.3358C80.1743 62.7438 81.0383 63.2358 81.8303 63.8118C82.6223 64.3638 83.2823 65.1558 83.8103 66.1878C84.3383 67.2198 84.6023 68.4198 84.6023 69.7878C84.6023 71.2278 84.2303 72.5358 83.4863 73.7118C83.0303 74.4318 82.4423 75.0558 81.7223 75.5838ZM98.473 76.2318V66.2238C98.473 64.4238 98.401 63.1158 98.257 62.2998C98.113 61.4838 97.765 61.0758 97.213 61.0758C96.733 61.0758 96.493 61.3998 96.493 62.0478V76.2318C96.493 76.4958 95.797 76.7118 94.405 76.8798C93.013 77.0238 91.585 77.0958 90.121 77.0958C88.657 77.0958 87.733 77.0358 87.349 76.9158C86.965 76.7718 86.773 76.5438 86.773 76.2318V51.2838C86.773 50.7798 87.469 50.2758 88.861 49.7718C90.253 49.2678 91.717 49.0158 93.253 49.0158C94.861 49.0158 95.881 49.3158 96.313 49.9158C96.457 50.1078 96.529 50.3118 96.529 50.5278V55.8198L96.133 58.3038H96.385C96.721 57.7998 97.249 57.3558 97.969 56.9718C99.313 56.2518 100.777 55.8918 102.361 55.8918C104.641 55.8918 106.177 56.6238 106.969 58.0878C107.785 59.5278 108.193 61.8798 108.193 65.1438V76.2318C108.193 76.4958 107.485 76.7118 106.069 76.8798C104.677 77.0238 103.249 77.0958 101.785 77.0958C100.345 77.0958 99.433 77.0358 99.049 76.9158C98.665 76.7718 98.473 76.5438 98.473 76.2318ZM120.614 58.4838V76.2318C120.614 76.4958 119.918 76.7118 118.526 76.8798C117.158 77.0238 115.742 77.0958 114.278 77.0958C112.838 77.0958 111.902 77.0358 111.47 76.9158C111.062 76.7718 110.858 76.5438 110.858 76.2318V59.1318C110.858 58.6038 111.53 58.0878 112.874 57.5838C114.242 57.0558 115.73 56.7918 117.338 56.7918C119.522 56.7918 120.614 57.3558 120.614 58.4838ZM115.718 49.0158C117.302 49.0158 118.538 49.2558 119.426 49.7358C120.338 50.1918 120.794 51.0318 120.794 52.2558C120.794 54.4158 119.114 55.4958 115.754 55.4958C112.394 55.4958 110.714 54.4158 110.714 52.2558C110.714 50.0958 112.382 49.0158 115.718 49.0158Z" fill="black"/>
</svg>
